<?xml version="1.0" encoding="UTF-8"?>
<svg width="41px" height="126px" viewBox="0 0 41 126" version="1.1" xmlns="http://www.w3.org/2000/svg" xmlns:xlink="http://www.w3.org/1999/xlink">
    <!-- Generator: Sketch 46.2 (44496) - http://www.bohemiancoding.com/sketch -->
    <title>アセット 1</title>
    <desc>Created with Sketch.</desc>
    <defs></defs>
    <g id="ホーム-copy" stroke="none" stroke-width="1" fill="none" fill-rule="evenodd">
        <g id="Desktop" transform="translate(-666.000000, -596.000000)" fill-rule="nonzero" fill="#C0CCDA">
            <g id="アセット-1" transform="translate(665.000000, 596.000000)">
                <circle id="Oval" cx="20.74" cy="9.74" r="9.74"></circle>
                <path d="M12.56,55.41 C9.83162401,55.3861324 7.49291652,53.4544199 6.95410076,50.7796708 C6.41528499,48.1049216 7.82366579,45.4183756 10.33,44.34 C11.9725673,44.2630962 13.3887554,43.4298246 14.21,42.11 L24.67,24 C25.5674627,22.1084247 24.7615753,19.8474627 22.87,18.95 C20.9784247,18.0525373 18.7174627,18.8584247 17.82,20.75 L6.29,37.39 L5,36.27 L14.91,22.12 C7.6,24 0.92,30.17 1,41 C1,45.79 3.47,47.76 5.93,47.67 L7.88,120.18 C7.88,122.908287 10.0917133,125.12 12.82,125.12 C15.5482867,125.12 17.76,122.908287 17.76,120.18 L19.76,75.6 L21.76,120.18 C21.76,122.908287 23.9717133,125.12 26.7,125.12 C29.4282867,125.12 31.64,122.908287 31.64,120.18 L33.2,56.28 L31.89,56.28 L12.56,55.41 Z" id="Shape"></path>
                <path d="M27,22.13 C27.0472992,23.0630609 26.8653305,23.9935051 26.47,24.84 L16,42.91 C15.8819949,43.1517645 15.7483791,43.3855921 15.6,43.61 L30.91,43.06 C31.4367426,42.8791677 31.7630157,42.3521112 31.69,41.8 L31.69,36.8 L32.93,38 L32.93,45.06 C32.6725148,45.0141444 32.4115355,44.9907232 32.15,44.99 L12.61,45.85 C10.5168408,45.85 8.82,47.5468408 8.82,49.64 C8.82,51.7331592 10.5168408,53.43 12.61,53.43 L32.15,54.29 C36.61,54.53 41.34,51.95 41.34,47.29 C41.34,29 33.82,24.13 27,22.13 Z" id="Shape"></path>
            </g>
        </g>
    </g>
</svg>